<?xml version="1.0" encoding="utf-8"?>
<!-- Generator: Adobe Illustrator 22.1.0, SVG Export Plug-In . SVG Version: 6.00 Build 0)  -->
<svg version="1.1" id="Calque_1" xmlns="http://www.w3.org/2000/svg" xmlns:xlink="http://www.w3.org/1999/xlink" x="0px" y="0px"
	 viewBox="0 0 489.1 512" style="enable-background:new 0 0 489.1 512;" xml:space="preserve">
<style type="text/css">
	.st0{fill:#C040FF;}
</style>
<path class="st0" d="M410.8,233.5c3.1-8.2,4.9-17.1,4.9-26.4c0-40.5-32.9-73.4-73.4-73.4c-15.1,0-29.1,4.6-40.7,12.4
	c-21.2-36.7-60.7-61.3-106-61.3c-67.6,0-122.3,54.7-122.3,122.3c0,2.1,0.1,4.1,0.2,6.2C30.7,228.3,0,269.1,0,317.1
	c0,60.8,49.3,110,110,110h281.2c54,0,97.8-43.8,97.8-97.8C489.1,282.1,455.5,242.5,410.8,233.5z"/>
</svg>
