<?xml version="1.0" encoding="utf-8"?>
<!-- Generator: Adobe Illustrator 22.1.0, SVG Export Plug-In . SVG Version: 6.00 Build 0)  -->
<svg version="1.1" id="Calque_1" xmlns="http://www.w3.org/2000/svg" xmlns:xlink="http://www.w3.org/1999/xlink" x="0px" y="0px"
	 viewBox="0 0 512 512" style="enable-background:new 0 0 512 512;" xml:space="preserve">
<style type="text/css">
	.st0{fill:#F39D77;}
</style>
<path class="st0" d="M274.8,12.6L300.4,75c4.2,10.3,16.7,14.3,26.1,8.5l57.3-35.5c15.5-9.6,34.8,4.4,30.5,22.1l-16,65.5
	c-2.6,10.8,5.1,21.4,16.2,22.2l67.2,5c18.2,1.3,25.5,24.1,11.6,35.8l-51.5,43.5c-8.5,7.2-8.5,20.3,0,27.5l51.5,43.5
	c13.9,11.8,6.5,34.5-11.6,35.8l-67.2,5c-11.1,0.8-18.8,11.4-16.2,22.2l16,65.5c4.3,17.7-15,31.7-30.5,22.1l-57.3-35.5
	c-9.5-5.9-21.9-1.8-26.1,8.5l-25.5,62.4c-6.9,16.9-30.8,16.9-37.7,0L211.6,437c-4.2-10.3-16.7-14.3-26.1-8.5l-57.3,35.5
	c-15.5,9.6-34.8-4.4-30.5-22.1l16-65.5c2.6-10.8-5.1-21.4-16.2-22.2l-67.2-5c-18.2-1.3-25.5-24.1-11.6-35.8l51.5-43.5
	c8.5-7.2,8.5-20.3,0-27.5l-51.5-43.5c-13.9-11.8-6.5-34.5,11.6-35.8l67.2-5c11.1-0.8,18.8-11.4,16.2-22.2l-16-65.5
	c-4.3-17.7,15-31.7,30.5-22.1l57.3,35.5c9.5,5.9,21.9,1.8,26.1-8.5l25.5-62.4C244.1-4.2,267.9-4.2,274.8,12.6L274.8,12.6z M392,256
	c0-75-61-136-136-136c-75,0-136,61-136,136s61,136,136,136C331,392,392,331,392,256z M360,256c0,57.3-46.7,104-104,104
	s-104-46.7-104-104s46.7-104,104-104S360,198.7,360,256z"/>
</svg>
