<?xml version="1.0" encoding="utf-8"?>
<!-- Generator: Adobe Illustrator 22.1.0, SVG Export Plug-In . SVG Version: 6.00 Build 0)  -->
<svg version="1.1" id="Calque_1" xmlns="http://www.w3.org/2000/svg" xmlns:xlink="http://www.w3.org/1999/xlink" x="0px" y="0px"
	 viewBox="0 0 489.1 512" style="enable-background:new 0 0 489.1 512;" xml:space="preserve">
<style type="text/css">
	.st0{fill:#77EAF3;}
</style>
<path class="st0" d="M244.6,512c-98.4,0-178.1-79.7-178.1-178.1c0-111.2,101.2-154.1,148.5-311.8c9.1-30.1,51.1-28.8,59.1,0
	c47.5,158.5,148.5,200.1,148.5,311.8C422.7,432.3,343,512,244.6,512z M202.1,340.2c-1.5-5.5-9.4-5.5-11,0
	c-9.2,29.4-27.9,37.6-27.9,58.4c0,18.5,14.9,33.4,33.4,33.4s33.4-14.9,33.4-33.4C230,377.8,211.3,369.7,202.1,340.2z"/>
</svg>
